<mxfile host="app.diagrams.net" agent="Mozilla/5.0 (X11; Linux x86_64) AppleWebKit/537.36 (KHTML, like Gecko) Chrome/133.0.0.0 Safari/537.36" version="26.0.14" pages="2">
  <diagram name="Page-1" id="Ne3rZ5zQPlQ9nKd71DTN">
    <mxGraphModel dx="1048" dy="614" grid="1" gridSize="10" guides="1" tooltips="1" connect="1" arrows="1" fold="1" page="1" pageScale="1" pageWidth="850" pageHeight="1100" math="0" shadow="0">
      <root>
        <mxCell id="0" />
        <mxCell id="1" parent="0" />
        <mxCell id="1CG_hY9LMkvvRbVhRXwE-2" value="" style="rounded=0;whiteSpace=wrap;html=1;" vertex="1" parent="1">
          <mxGeometry x="30" y="200" width="340" height="160" as="geometry" />
        </mxCell>
        <mxCell id="1CG_hY9LMkvvRbVhRXwE-3" value="New User Created" style="rounded=1;whiteSpace=wrap;html=1;" vertex="1" parent="1">
          <mxGeometry x="70" y="290" width="150" height="60" as="geometry" />
        </mxCell>
        <mxCell id="1CG_hY9LMkvvRbVhRXwE-5" value="AuthRouter" style="rounded=1;whiteSpace=wrap;html=1;fillColor=#f8cecc;strokeColor=#b85450;" vertex="1" parent="1">
          <mxGeometry x="400" y="200" width="120" height="60" as="geometry" />
        </mxCell>
        <mxCell id="1CG_hY9LMkvvRbVhRXwE-6" value="New User" style="shape=process;whiteSpace=wrap;html=1;backgroundOutline=1;" vertex="1" parent="1">
          <mxGeometry x="400" y="300" width="120" height="60" as="geometry" />
        </mxCell>
        <mxCell id="1CG_hY9LMkvvRbVhRXwE-7" value="User App" style="rounded=0;whiteSpace=wrap;html=1;" vertex="1" parent="1">
          <mxGeometry x="70" y="210" width="150" height="40" as="geometry" />
        </mxCell>
        <mxCell id="1CG_hY9LMkvvRbVhRXwE-8" value="User Database" style="rounded=0;whiteSpace=wrap;html=1;fillColor=#e1d5e7;strokeColor=#9673a6;" vertex="1" parent="1">
          <mxGeometry x="740" y="180" width="190" height="80" as="geometry" />
        </mxCell>
        <mxCell id="1CG_hY9LMkvvRbVhRXwE-9" value="" style="rounded=0;whiteSpace=wrap;html=1;" vertex="1" parent="1">
          <mxGeometry x="30" y="490" width="340" height="160" as="geometry" />
        </mxCell>
        <mxCell id="1CG_hY9LMkvvRbVhRXwE-10" value="&amp;nbsp;New Listing Created" style="rounded=1;whiteSpace=wrap;html=1;" vertex="1" parent="1">
          <mxGeometry x="70" y="580" width="150" height="60" as="geometry" />
        </mxCell>
        <mxCell id="1CG_hY9LMkvvRbVhRXwE-11" value="Listing Route" style="rounded=1;whiteSpace=wrap;html=1;fillColor=#f8cecc;strokeColor=#b85450;" vertex="1" parent="1">
          <mxGeometry x="400" y="490" width="120" height="60" as="geometry" />
        </mxCell>
        <mxCell id="1CG_hY9LMkvvRbVhRXwE-12" value="New Listing" style="shape=process;whiteSpace=wrap;html=1;backgroundOutline=1;" vertex="1" parent="1">
          <mxGeometry x="400" y="590" width="120" height="60" as="geometry" />
        </mxCell>
        <mxCell id="1CG_hY9LMkvvRbVhRXwE-13" value="Listing App" style="rounded=0;whiteSpace=wrap;html=1;" vertex="1" parent="1">
          <mxGeometry x="70" y="500" width="150" height="40" as="geometry" />
        </mxCell>
        <mxCell id="1CG_hY9LMkvvRbVhRXwE-14" value="Listing Database" style="rounded=0;whiteSpace=wrap;html=1;fillColor=#e1d5e7;strokeColor=#9673a6;" vertex="1" parent="1">
          <mxGeometry x="740" y="540" width="210" height="90" as="geometry" />
        </mxCell>
        <mxCell id="1CG_hY9LMkvvRbVhRXwE-16" value="" style="endArrow=classic;html=1;rounded=0;entryX=0.005;entryY=0.888;entryDx=0;entryDy=0;entryPerimeter=0;" edge="1" parent="1" target="1CG_hY9LMkvvRbVhRXwE-8">
          <mxGeometry width="50" height="50" relative="1" as="geometry">
            <mxPoint x="520" y="360" as="sourcePoint" />
            <mxPoint x="730" y="240" as="targetPoint" />
          </mxGeometry>
        </mxCell>
        <mxCell id="1CG_hY9LMkvvRbVhRXwE-18" value="" style="endArrow=none;dashed=1;html=1;rounded=0;" edge="1" parent="1">
          <mxGeometry width="50" height="50" relative="1" as="geometry">
            <mxPoint x="520" y="530" as="sourcePoint" />
            <mxPoint x="730" y="540" as="targetPoint" />
          </mxGeometry>
        </mxCell>
        <mxCell id="1CG_hY9LMkvvRbVhRXwE-20" value="" style="endArrow=none;dashed=1;html=1;rounded=0;entryX=-0.021;entryY=0.338;entryDx=0;entryDy=0;entryPerimeter=0;" edge="1" parent="1" target="1CG_hY9LMkvvRbVhRXwE-8">
          <mxGeometry width="50" height="50" relative="1" as="geometry">
            <mxPoint x="520" y="230" as="sourcePoint" />
            <mxPoint x="570" y="180" as="targetPoint" />
          </mxGeometry>
        </mxCell>
        <mxCell id="1CG_hY9LMkvvRbVhRXwE-22" value="" style="endArrow=classic;html=1;rounded=0;entryX=0;entryY=1;entryDx=0;entryDy=0;" edge="1" parent="1" target="1CG_hY9LMkvvRbVhRXwE-14">
          <mxGeometry width="50" height="50" relative="1" as="geometry">
            <mxPoint x="520" y="650" as="sourcePoint" />
            <mxPoint x="570" y="600" as="targetPoint" />
          </mxGeometry>
        </mxCell>
        <mxCell id="1CG_hY9LMkvvRbVhRXwE-23" value="" style="endArrow=classic;html=1;rounded=0;entryX=0;entryY=0.75;entryDx=0;entryDy=0;" edge="1" parent="1" target="1CG_hY9LMkvvRbVhRXwE-5">
          <mxGeometry width="50" height="50" relative="1" as="geometry">
            <mxPoint x="370" y="245" as="sourcePoint" />
            <mxPoint x="420" y="195" as="targetPoint" />
          </mxGeometry>
        </mxCell>
        <mxCell id="1CG_hY9LMkvvRbVhRXwE-25" value="" style="endArrow=classic;html=1;rounded=0;entryX=0;entryY=0.5;entryDx=0;entryDy=0;" edge="1" parent="1" target="1CG_hY9LMkvvRbVhRXwE-11">
          <mxGeometry width="50" height="50" relative="1" as="geometry">
            <mxPoint x="370" y="519.5" as="sourcePoint" />
            <mxPoint x="390" y="520" as="targetPoint" />
          </mxGeometry>
        </mxCell>
      </root>
    </mxGraphModel>
  </diagram>
  <diagram id="DYa-FJVk-Ahk1H8EZezr" name="Page-2">
    <mxGraphModel dx="1048" dy="614" grid="1" gridSize="10" guides="1" tooltips="1" connect="1" arrows="1" fold="1" page="1" pageScale="1" pageWidth="850" pageHeight="1100" math="0" shadow="0">
      <root>
        <mxCell id="0" />
        <mxCell id="1" parent="0" />
        <mxCell id="ksyIPdSpmR9QzlAnh78v-2" value="ADMIN USERS&lt;div&gt;(SUPER-ADMIN)&lt;/div&gt;" style="rounded=0;whiteSpace=wrap;html=1;fillColor=#dae8fc;strokeColor=#6c8ebf;" vertex="1" parent="1">
          <mxGeometry x="70" y="80" width="270" height="110" as="geometry" />
        </mxCell>
        <mxCell id="ksyIPdSpmR9QzlAnh78v-3" value="" style="rounded=1;whiteSpace=wrap;html=1;fillColor=#f8cecc;strokeColor=#b85450;" vertex="1" parent="1">
          <mxGeometry x="50" y="240" width="280" height="280" as="geometry" />
        </mxCell>
        <mxCell id="ksyIPdSpmR9QzlAnh78v-5" value="Manages Users" style="rounded=1;whiteSpace=wrap;html=1;" vertex="1" parent="1">
          <mxGeometry x="100" y="270" width="180" height="70" as="geometry" />
        </mxCell>
        <mxCell id="ksyIPdSpmR9QzlAnh78v-6" value="Manages Listing&amp;nbsp;" style="rounded=1;whiteSpace=wrap;html=1;" vertex="1" parent="1">
          <mxGeometry x="100" y="390" width="180" height="70" as="geometry" />
        </mxCell>
        <mxCell id="ksyIPdSpmR9QzlAnh78v-7" value="User Database&lt;div&gt;&lt;br&gt;&lt;/div&gt;" style="rounded=0;whiteSpace=wrap;html=1;fontStyle=4;fillColor=#e1d5e7;strokeColor=#9673a6;" vertex="1" parent="1">
          <mxGeometry x="500" y="275" width="250" height="85" as="geometry" />
        </mxCell>
        <mxCell id="ksyIPdSpmR9QzlAnh78v-8" value="Listing Database" style="rounded=0;whiteSpace=wrap;html=1;fillColor=#e1d5e7;strokeColor=#9673a6;" vertex="1" parent="1">
          <mxGeometry x="500" y="400" width="250" height="85" as="geometry" />
        </mxCell>
        <mxCell id="ksyIPdSpmR9QzlAnh78v-11" value="" style="endArrow=none;html=1;rounded=0;exitX=1.014;exitY=0.336;exitDx=0;exitDy=0;exitPerimeter=0;entryX=0;entryY=0.75;entryDx=0;entryDy=0;" edge="1" parent="1" source="ksyIPdSpmR9QzlAnh78v-3" target="ksyIPdSpmR9QzlAnh78v-7">
          <mxGeometry width="50" height="50" relative="1" as="geometry">
            <mxPoint x="400" y="340" as="sourcePoint" />
            <mxPoint x="450" y="290" as="targetPoint" />
          </mxGeometry>
        </mxCell>
        <mxCell id="ksyIPdSpmR9QzlAnh78v-12" value="" style="endArrow=none;html=1;rounded=0;exitX=1.014;exitY=0.336;exitDx=0;exitDy=0;exitPerimeter=0;entryX=0;entryY=0.471;entryDx=0;entryDy=0;entryPerimeter=0;" edge="1" parent="1" target="ksyIPdSpmR9QzlAnh78v-8">
          <mxGeometry width="50" height="50" relative="1" as="geometry">
            <mxPoint x="330" y="430" as="sourcePoint" />
            <mxPoint x="496" y="435" as="targetPoint" />
          </mxGeometry>
        </mxCell>
      </root>
    </mxGraphModel>
  </diagram>
</mxfile>
